<?xml version="1.0" encoding="utf-8"?>
<!-- Generator: Adobe Illustrator 15.0.0, SVG Export Plug-In . SVG Version: 6.00 Build 0)  -->
<!DOCTYPE svg PUBLIC "-//W3C//DTD SVG 1.1//EN" "http://www.w3.org/Graphics/SVG/1.1/DTD/svg11.dtd">
<svg version="1.1" id="Layer_1" xmlns="http://www.w3.org/2000/svg" xmlns:xlink="http://www.w3.org/1999/xlink" x="0px" y="0px"
	 width="2880px" height="1440px" viewBox="0 0 2880 1440" enable-background="new 0 0 2880 1440" xml:space="preserve">
<path fill="#FFFFFF" d="M133.451,1189.62c-6.355,0-12.71-7.625-12.71-13.98V61.006c0-7.626,5.084-15.251,12.71-15.251h409.25
	c7.625,0,13.979,6.354,15.251,15.251l45.755,303.759c1.271,10.168,5.084,15.252,7.626,15.252s6.354-6.354,6.354-16.521
	l36.856-299.947c1.271-8.896,7.626-16.522,16.522-16.522h424.502c10.168,0,16.521,6.355,16.521,16.522V1175.64
	c0,8.896-7.626,15.252-16.521,15.252h-278.34c-8.896,0-16.521-6.354-16.521-16.521V695.216c0-12.709-1.271-16.521-5.084-16.521
	c-2.542,0-6.354,6.354-10.168,30.504l-78.799,467.714c-1.271,8.896-8.897,12.709-16.522,12.709H517.281
	c-7.625,0-13.98-6.354-16.522-16.521L430.857,737.16c-5.084-25.42-10.168-30.503-15.252-30.503s-7.627,7.625-7.627,20.335v447.379
	c0,10.167-5.084,16.522-15.25,16.522H133.451V1189.62z"/>
<path fill="#FFFFFF" d="M2292.814,1189.62c-10.166,0-21.605-8.896-21.605-21.606V371.121c0-10.168-8.896-17.794-20.335-17.794
	h-152.517c-8.896,0-20.334-12.709-20.334-21.606V61.006c0-8.897,5.082-15.251,13.979-15.251h653.274
	c10.166,0,20.334,6.354,20.334,17.793v268.173c0,12.71-8.896,21.606-21.604,21.606H2591.49c-10.168,0-17.793,7.626-17.793,21.605
	v794.353c0,10.168-8.896,20.335-21.606,20.335H2292.814L2292.814,1189.62z"/>
<text transform="matrix(0.9916 0 0 1 120.7817 1332.166)" fill="#FFFFFF" font-family="'Arial-BoldMT'" font-size="130.5342">Microbial Signal Transduction Database 3.0</text>
<rect x="1110.82" y="251.65" fill="none" width="19.063" height="24.148"/>
<rect x="1422.207" y="251.65" fill="none" width="19.064" height="24.148"/>
<rect x="2060.229" y="251.65" fill="none" width="19.064" height="24.148"/>
<g>
	<path fill="#FFFFFF" d="M1129.885,1174.369c0,7.626,6.355,15.251,15.252,15.251h263.09c7.625,0,15.252-6.354,15.252-15.251V306.302
		c0-7.625-6.354-15.251-15.252-15.251h-264.36c-7.625,0-15.251,6.355-15.251,15.251L1129.885,1174.369L1129.885,1174.369z"/>
</g>
<g>
	<path fill="#FFFFFF" d="M2060.229,1037.105c0,83.883-68.631,152.515-152.516,152.515h-313.928
		c-83.883,0-152.516-68.632-152.516-152.515V196.999c0-83.883,68.633-152.516,152.516-152.516h313.928
		c83.885,0,152.516,68.632,152.516,152.516V1037.105z"/>
	<g>
		<g id="XMLID_4_">
			<g>
				<path fill="#96C75C" d="M1678.941,316.47c27.961-41.942,80.069-58.464,127.096-38.129c12.709,5.083,24.148,12.709,34.316,21.606
					c5.082,3.813,11.438,8.896,16.521,12.709c3.813,3.813,7.627,6.354,11.438,10.168c2.541,2.542,3.813,3.813,7.625,2.542
					c2.543,0,3.813-3.813,6.355-2.542c3.813,1.271,1.271,7.626,0,10.168c10.168,13.979,15.252,2.542,25.419-5.084
					c3.813-2.542,10.168-6.354,15.252-5.084c3.813,1.271,3.813,5.084,0,7.626c-6.354,5.084-27.962,5.084-22.878,16.521
					c3.813,11.438,19.064,6.354,26.689,2.542c3.813-2.542,22.879-15.252,20.336-2.542c-2.541,12.71-24.147,5.084-27.961,13.98
					c-3.813,8.896,15.252,13.979,20.336,11.438c8.896-5.084,13.979-19.063,25.418-17.793c5.084,1.271,7.627,6.354,5.084,10.167
					c-3.813,6.355-11.438,6.355-16.521,7.626c-8.896,2.542-10.168,11.438-3.813,17.794c8.896,6.354,19.063-3.813,25.418-8.896
					c5.084-3.813,11.438-8.897,17.793-7.626c5.084,0,7.627,3.813,3.813,7.626c-5.084,5.083-15.252,5.083-20.336,7.625
					c-13.979,5.084-8.896,21.605,5.084,20.336c13.979-1.271,13.979-21.606,25.419-26.69c3.813-1.271,13.98-2.542,16.521,2.542
					c2.543,5.084-3.813,7.626-7.625,10.168c-8.896,3.813-30.504,12.709-19.063,25.419c11.438,12.711,19.063-1.271,25.419-11.438
					c6.354-11.438,19.064-20.336,31.773-19.064c6.354,1.271,6.354,3.813,2.541,7.627c-5.084,5.082-12.709,7.625-19.063,10.166
					c-6.354,2.543-12.709,7.627-15.251,13.98c-3.813,8.897,3.813,17.794,13.98,17.794c8.896,0,11.438-10.168,15.25-16.521
					c5.084-8.896,13.981-20.337,25.42-19.064c7.627,0,11.438,6.354,5.084,11.438c-5.084,3.813-11.438,3.813-16.522,6.354
					c-3.813,2.542-8.896,5.084-11.438,8.897c-3.813,6.354-3.813,13.979,3.813,17.793c6.354,2.542,12.709,3.813,17.793-2.542
					c6.354-7.625,8.896-16.522,16.522-22.877c3.813-2.543,16.521-6.354,20.336,0c2.541,6.354-11.438,11.438-15.252,12.71
					c-5.084,2.542-10.168,5.083-12.709,8.896c-10.168,13.98,11.438,26.69,19.063,11.438c5.083-10.169,8.896-21.606,20.335-26.69
					c5.084-2.542,21.605-3.813,20.336,6.355c-1.271,7.625-15.252,7.625-21.605,10.166c-5.084,2.543-11.438,6.355-13.98,11.439
					c-3.813,7.625,2.542,15.251,8.896,16.522c6.354,1.271,11.438-6.355,13.979-11.439c5.084-8.896,12.71-15.251,22.878-20.335
					c3.813-1.271,16.521-6.354,17.793,1.271c1.271,7.626-15.252,11.438-20.336,13.98c-5.083,2.541-11.438,6.354-13.98,12.709
					c-3.813,7.626-2.541,13.98,5.084,16.522c13.98,5.084,17.793-15.251,26.69-24.148c3.813-3.813,26.69-17.793,25.419-5.084
					c-1.271,12.71-24.148,17.794-31.773,25.42c-8.896,8.896,2.541,24.148,12.709,16.522c5.084-3.813,8.896-11.438,12.711-16.522
					c5.084-5.084,10.166-10.168,16.521-11.438c3.813-1.271,10.168-2.542,11.438,2.541c1.271,5.084-6.354,10.168-10.168,12.71
					c-7.625,5.084-31.772,15.252-20.334,26.689c10.168,11.438,19.063-5.084,26.688-8.896c3.813-2.542,15.252-6.355,16.522,1.271
					c0,5.084-8.896,11.438-12.709,12.71c-2.543,1.271-8.896,1.271-10.168,3.813c-3.813,6.354,12.709,16.521,15.252,19.063
					c10.166,8.896,20.334,19.064,25.418,31.774c3.813,8.896,3.813,17.793,5.084,26.688c1.271,8.897,2.543,16.522,1.271,25.42
					c-1.271,7.626-3.813,15.251,6.354,17.794c6.354,1.271,13.98-1.271,20.336-2.543c7.625-1.271,15.252-2.541,22.877-3.813
					c15.252-2.542,30.504-5.084,47.025-5.084c8.896,0,17.793,0,26.689,1.271c20.336,3.813,40.67,13.979,58.465,27.961
					c-7.626,1.271-16.522,2.542-24.147,3.813c-15.252-12.709-33.046-17.793-53.381-16.521c-16.522,1.271-33.045,6.354-49.567,8.896
					c-10.168,1.271-20.334,2.542-30.502,2.542c-8.896,0-19.064-3.813-26.69-1.271c0,10.168,16.522,16.521,24.147,19.063
					c11.438,3.813,24.147,3.813,36.857,2.542c25.419-2.542,50.839-6.354,76.258-11.438c7.626-1.271,16.522-2.542,24.148-5.084l0,0
					c6.354,5.084,13.979,11.438,20.335,17.793c-21.605,2.542-43.213,6.354-64.818,10.168c-3.813,1.271-8.897,1.271-12.71,2.542
					c-16.521,2.542-33.045,2.542-50.839,3.813c-11.438,0-21.605,0-31.773-3.813c-6.354-2.542-11.438-5.084-16.522-8.896
					c-5.083-2.542-7.625-8.896-12.709-11.438c-6.355-2.542-12.71,3.813-16.522,7.626c-5.084,5.084,13.98,17.794,19.064,20.336
					c6.354,5.083,13.979,8.896,21.605,10.167c17.793,3.813,36.857-3.813,54.651-8.896c11.438-3.813,22.877-6.354,34.314-7.626
					c11.438-1.271,22.879-1.271,34.316,1.271c25.419,5.084,47.025,21.605,64.818,39.398c7.627,7.626,15.252,16.522,20.336,25.419
					c2.542,3.813,8.896,11.439,8.896,16.522c0,3.813-1.271,2.542-3.813,1.271c-6.355-3.813-11.438-10.168-16.522-13.979
					c-33.046-30.503-69.902-57.193-118.199-49.567c-20.336,3.813-39.399,10.167-59.734,10.167c-21.605,0-41.941-8.896-59.735-19.063
					c-3.813-2.542-8.896-3.813-12.71-7.625c-7.626-6.355-8.896,1.271-13.979,6.354c-2.542,2.542-6.354,5.084-8.896,6.354
					c-6.354,2.542-15.252,3.813-22.878,3.813s-15.251,0-22.877-1.271c-6.354,0-13.979-3.813-20.335-1.271
					c-3.813,1.271-5.084,5.084-6.354,7.626c0,1.271-1.271,3.813-2.542,5.083c-2.542,3.813-5.083,8.897-8.896,12.71
					c-7.626,7.626-16.521,8.896-26.689,5.084c-3.813-1.271-17.793-7.626-7.626-8.896c10.168-1.271,19.063,3.813,29.231-3.813
					c6.354-5.084,12.71-15.251,6.354-22.877c-5.084-6.354-13.98-1.271-19.064,2.542c-7.625,6.354-13.979,7.626-24.147,5.084
					c-3.813-1.271-20.335-3.813-12.709-10.168c6.354-3.813,17.793,1.271,25.419,0c7.626-1.271,10.168-8.896,6.354-15.252
					c-2.541-5.083-6.354-6.354-11.438-2.541c-7.627,5.083-11.439,7.625-21.607,7.625c-8.896,0-16.521-2.542-22.877-6.354
					c7.626-3.813,15.252-2.541,24.148-3.813c6.354,0,19.063,0,16.521-10.168c-6.354-20.336-30.503,2.542-40.671,3.813
					c-10.168,1.271-20.335-2.542-29.231-6.354c10.168-2.542,19.063,1.271,29.231,1.271c5.084,0,11.438-3.813,7.626-10.167
					c-10.168-15.252-34.314,3.813-45.755,5.084c-2.542,0-21.606,2.541-16.522-5.084c3.813-5.084,20.336,0,25.42-1.271
					c3.813-1.271,10.168-3.813,8.896-7.626c0-5.083-10.168-6.354-13.98-6.354c-5.084-1.271-10.168,1.271-13.98,3.813
					c-7.625,5.083-12.709,11.438-22.877,10.167c-3.813,0-20.336-6.354-11.438-11.438c6.354-3.813,17.793,3.813,25.418,1.271
					c2.543-1.271,10.168-3.813,10.168-7.625c0-3.813-2.541-3.813-5.084-5.084c-3.813-2.542-6.354-6.355-11.438-6.355
					c-3.813,0-7.626,5.084-11.438,6.355c-7.627,5.084-13.98,2.542-21.606,1.271c-2.542,0-16.522-2.542-12.71-8.896
					c3.813-5.084,16.523,2.542,21.605,1.271c2.543,0,8.896-2.542,10.168-5.083c3.813-5.084-11.438-12.71-16.521-11.438
					c-3.813,0-6.355,3.813-10.168,6.354c-7.626,5.084-16.521,3.813-24.148,1.271c-5.084-2.542-10.168-7.626-1.271-7.626
					c6.354-1.271,11.438,3.813,17.793,1.271c6.354-1.271,6.354-6.354,1.271-10.168c-10.168-8.896-15.252,0-25.418,3.813
					c-7.627,2.542-17.795,3.813-25.42,1.271c-10.168-2.542-3.813-7.626,3.813-6.354c8.896,1.271,17.794,6.354,24.148-2.542
					c3.813-5.084,1.271-6.355-3.813-8.897c-3.813-1.271-7.626-5.083-11.438-6.354c-5.084-1.271-5.084,2.542-8.896,5.084
					c-2.541,3.813-7.625,5.084-11.438,7.626c-8.897,3.813-17.795,2.542-26.691,0c10.168-6.355,22.878,1.271,34.316-7.626
					c3.813-3.813,5.084-7.626,2.541-11.438c-10.168-12.71-19.063-2.542-29.231,2.542c-6.354,3.813-12.709,5.084-19.064,3.813
					c-2.542,0-13.979-2.542-11.438-6.354c1.271-2.542,11.438,0,13.979,0c7.626,1.271,35.588-5.084,25.42-17.794
					c-2.541-3.813-11.438-8.896-16.522-7.626c-5.083,1.271-7.625,7.626-11.438,11.439c-12.709,13.979-25.42,11.438-38.129,0
					c10.167-5.084,40.67,1.271,39.399-16.522c0-7.626-6.354-13.979-13.979-11.438c-7.627,2.542-12.711,11.438-20.337,13.979
					c-10.167,3.813-19.063-3.813-27.961-8.896c10.168,1.271,24.147,1.271,33.045-6.354c10.168-8.896,0-20.336-7.626-26.689
					c-10.167-10.168-21.604-17.793-31.772-27.961s-20.337-20.336-30.503-29.232c-10.168-8.896-20.336-16.522-29.232-26.69
					c-7.626-8.896-12.71-19.063-17.794-30.503c-5.084-10.167-8.896-21.605-10.167-33.045
					C1658.605,360.953,1664.96,336.805,1678.941,316.47z"/>
				<path fill="#96C75C" d="M2407.202,672.339L2407.202,672.339c7.626-1.271,15.251-2.542,24.147-3.813
					c7.626,6.354,15.251,12.709,21.606,20.335c-6.355,0-12.71,0-19.064,1.271c-2.542,0-5.084,0-7.626,1.271
					C2419.912,683.777,2413.557,677.423,2407.202,672.339z"/>
				<path fill="#96C75C" d="M2430.079,667.255c8.897-1.271,19.063-2.542,27.962-2.542c24.146,0,45.754,6.355,64.818,22.878
					c10.168,8.896,21.605,19.064,27.961,31.773c2.542,5.084,3.813,10.168,2.542,15.252c0,5.084-1.271,13.979-7.626,13.979
					s-8.896-11.438-12.709-15.252c-3.813-5.084-7.626-10.167-11.438-13.979c-8.896-8.896-17.794-16.522-27.962-22.877
					c-12.709-7.626-26.688-10.168-40.67-10.168C2445.331,679.965,2438.977,673.61,2430.079,667.255z"/>
				<path fill="#96C75C" d="M2426.268,688.861c2.541,0,5.084,0,7.625-1.271c6.354,0,12.709-1.271,19.064-1.271
					c6.354,6.354,11.438,12.71,16.521,17.794c6.354,8.896,12.711,17.793,17.793,27.961c2.543,5.084,5.084,11.438,7.627,16.521
					c0,1.271,3.813,7.626,3.813,8.896c-2.542,10.168-22.878-15.251-24.148-17.793c-6.354-7.626-12.709-16.522-19.063-24.148
					C2444.061,707.926,2435.163,697.758,2426.268,688.861z"/>
			</g>
		</g>
	</g>
	<g>
		<g id="XMLID_3_">
			<g>
				<path fill="#96C75C" d="M1790.785,976.099c-34.314,38.13-87.695,47.025-130.908,19.064
					c-11.439-7.626-21.607-16.522-30.504-26.69c-5.084-5.083-10.168-10.167-13.98-15.251c-3.813-3.813-6.354-7.626-8.896-11.438
					c-2.542-2.542-3.813-3.813-6.354-3.813s-3.813,2.542-6.354,1.271c-2.542-2.542,0-7.626,2.542-10.168
					c-7.625-15.252-15.251-3.813-25.419,1.271c-3.813,2.542-11.438,5.084-15.251,2.542s-2.543-5.084,1.271-7.625
					c6.354-3.813,27.961-1.271,25.418-13.98c-2.541-11.438-17.793-10.167-25.418-6.354c-3.813,1.271-25.42,11.438-20.336-1.271
					c5.084-11.439,24.147-1.271,29.231-10.168c5.084-7.626-12.71-16.522-19.063-13.98c-8.896,3.813-16.522,16.522-27.961,13.98
					c-5.084-1.271-6.354-6.354-3.813-11.438c3.813-5.084,11.438-3.813,17.794-5.084c8.896,0,11.438-10.168,6.354-16.521
					c-7.625-7.626-19.063,1.271-26.688,5.084c-5.084,2.542-12.71,7.625-19.063,5.084c-5.084-1.271-7.627-5.084-2.543-7.626
					c5.084-3.813,15.252-2.542,21.606-3.813c13.979-3.813,12.709-19.063-2.542-20.335c-13.98-1.271-16.521,19.064-29.232,22.877
					c-3.813,1.271-13.979,1.271-16.521-5.084c-1.271-5.083,5.084-7.625,8.896-8.896c8.896-2.542,31.774-7.626,22.877-22.877
					c-10.167-15.252-19.063-1.271-26.688,7.626c-7.626,10.167-21.606,17.793-34.316,13.979c-6.354-1.271-5.084-5.084-1.271-8.896
					c6.354-5.083,13.98-5.083,20.336-7.625c6.354-2.542,13.979-5.084,16.521-11.439c5.084-7.625-1.271-17.793-10.167-19.063
					c-8.896-1.271-12.71,8.896-17.794,15.252c-6.354,8.896-16.521,17.794-27.961,15.252c-7.626-1.271-10.168-7.626-3.813-11.439
					c5.084-2.542,11.438-2.542,17.793-5.084c5.084-1.271,10.168-3.813,12.711-7.625c5.084-6.354,6.354-13.979-1.271-17.794
					c-6.354-3.813-11.438-5.084-17.793,0c-6.355,6.354-11.439,15.252-19.064,20.336c-5.084,2.542-17.793,3.813-19.063-2.542
					c-2.542-6.354,12.709-8.896,17.793-10.168s10.168-3.813,13.979-7.626c12.711-12.709-7.625-27.961-17.793-13.979
					c-7.625,8.896-11.438,19.063-24.147,22.877c-6.354,1.271-22.877,1.271-19.063-8.896c2.541-7.626,16.521-5.084,22.877-6.354
					c5.084-1.271,12.709-3.813,15.252-8.896c3.813-6.354,0-15.252-6.355-17.794c-6.354-2.542-11.438,3.813-15.251,8.896
					c-6.354,8.897-15.251,13.98-25.419,16.522c-3.813,1.271-16.521,3.813-17.794-3.813c0-7.625,17.794-8.896,21.606-11.438
					c6.354-2.542,11.438-5.084,15.252-10.168c5.084-7.626,5.084-13.98-2.543-17.793c-13.98-7.626-20.336,12.709-29.231,19.063
					c-3.813,2.541-29.232,13.98-26.69,1.271c2.543-12.709,25.42-13.98,34.316-21.606c10.168-7.626,1.271-24.147-10.168-17.793
					c-6.354,2.541-10.168,10.167-15.252,13.98c-5.084,5.083-11.438,8.896-19.064,8.896c-3.813,0-10.166,1.271-11.438-5.084
					c0-5.084,7.626-8.896,11.438-11.438c7.627-3.813,33.045-10.168,24.148-24.148c-8.896-12.71-20.335,2.542-27.961,5.084
					c-3.813,1.271-16.521,3.813-15.252-3.813c0-5.083,10.168-10.167,13.98-11.438c2.543-1.271,8.896,0,10.168-2.542
					c5.084-5.084-10.168-17.793-12.709-21.605c-8.896-10.167-16.522-21.606-20.337-35.587c-2.541-8.896-1.271-17.793-1.271-27.961
					c0-8.896,0-16.522,2.542-25.419c2.542-7.626,6.354-15.253-3.813-17.794c-6.354-2.543-13.98-1.271-20.336-1.271
					c-7.626,0-15.252,0-24.148,1.271c-15.252,0-31.772,1.271-47.024-1.271c-8.896-1.271-17.793-2.542-25.419-5.084
					c-20.336-6.354-38.129-19.064-53.381-35.587c7.626,0,16.521,0,24.148,0c13.979,15.252,29.231,22.877,49.566,24.147
					c16.521,0,33.045-1.271,49.566-1.271c10.168,0,20.337,0,30.504,1.271c8.896,1.271,17.794,6.354,26.689,5.084
					c1.271-10.168-12.71-19.063-20.335-22.878c-11.438-5.084-24.147-6.354-35.587-7.625c-25.419-1.271-50.839-1.271-77.527,0
					c-7.627,0-16.523,1.271-24.148,1.271l0,0c-6.355-6.354-11.439-12.71-16.523-20.335c21.606,0,43.213,0,64.819-1.271
					c5.084,0,10.168,0,16.522,0c16.521,0,31.773,1.271,47.024,3.813c11.439,1.271,21.606,2.541,31.774,7.625
					c5.084,2.542,10.168,6.354,15.251,11.438c3.813,3.813,6.354,10.169,11.438,12.71c5.084,3.813,12.709-1.271,17.793-5.084
					c5.084-5.084-11.438-19.063-15.25-22.877c-5.084-6.354-12.711-11.438-20.337-13.979c-17.793-6.355-36.856-2.542-54.651,0
					c-10.168,1.271-21.604,2.542-31.772,2.542c-12.71,0-24.147-1.271-36.858-6.355c-24.147-8.896-43.213-27.961-58.463-48.296
					c-6.355-8.896-12.711-19.063-16.522-29.231c-1.271-3.813-7.626-12.71-6.354-17.793c1.271-3.813,1.271-2.542,3.813,0
					c5.084,3.813,10.168,11.438,13.979,16.521c29.232,35.587,61.006,67.36,109.303,66.09c20.336,0,40.672-5.084,61.007-2.542
					c21.605,2.542,39.399,13.98,57.192,27.961c3.813,2.542,8.896,5.085,11.439,8.896c6.354,6.354,8.896,0,15.251-3.813
					c2.542-2.542,6.354-3.813,10.168-5.084c7.626-1.271,15.251-1.271,22.877-1.271s15.252,2.542,22.878,3.813
					c6.354,1.271,13.98,6.354,20.335,3.813c3.813-1.271,5.084-3.813,7.626-7.625c1.271-1.271,1.271-3.813,2.542-5.084
					c2.542-3.813,6.354-7.626,10.167-11.438c8.896-6.354,17.794-6.354,27.961-1.271c3.813,1.271,15.252,10.168,5.084,10.168
					c-10.167,0-19.064-6.355-29.23-1.271c-6.354,3.813-15.252,13.98-8.897,21.606c5.084,6.354,13.979,2.542,19.063,0
					c8.897-5.084,15.252-5.084,24.148-2.542c3.813,1.271,19.064,7.626,11.439,11.439c-6.355,3.813-17.795-3.813-25.42-3.813
					c-7.625,1.271-11.438,6.354-8.896,13.979c2.542,6.355,5.084,6.355,10.168,3.813c7.625-3.813,12.709-6.354,21.605-5.084
					c7.627,1.271,15.252,3.813,21.606,8.896c-7.626,2.543-15.252,1.271-24.147,0c-6.355,0-19.064-2.541-17.795,7.627
					c3.813,21.605,30.504,2.541,40.672,2.541s19.063,5.084,27.961,11.438c-10.168,1.271-19.064-3.813-29.232-5.084
					c-5.084,0-11.438,2.542-8.896,8.896c7.627,16.522,34.316,1.271,45.756,1.271c2.542,0,22.877,1.271,16.521,7.626
					c-3.813,5.083-19.063-2.542-25.419-2.542c-3.813,0-10.168,1.271-10.168,6.354c0,5.084,8.896,7.627,12.71,8.896
					c5.084,1.271,10.168,0,15.251-2.542c7.626-3.813,13.98-8.896,22.878-6.354c3.813,1.271,19.064,8.896,8.896,12.711
					c-6.355,2.542-16.521-6.355-24.148-5.084c-3.813,0-10.168,2.542-11.438,6.354c-1.271,3.813,2.542,3.813,5.083,5.084
					c3.813,2.542,5.084,7.626,10.168,7.626c3.813,0,8.896-3.813,11.438-5.084c7.625-3.813,13.98-1.271,21.605,1.271
					c2.542,1.271,16.523,5.084,11.439,10.168c-3.813,3.813-16.523-3.813-21.606-5.084c-2.542,0-8.897,1.271-10.168,3.813
					c-3.813,5.084,10.168,13.981,13.979,13.981c3.813,0,7.627-2.542,10.168-3.813c8.896-3.813,16.522-2.542,24.148,2.542
					c5.083,2.542,8.896,8.896,1.271,8.896c-6.354,0-11.438-5.084-17.793-3.813c-7.627,1.271-7.627,5.084-3.813,10.168
					c8.897,10.167,15.252,2.542,25.419,0c7.626-2.542,17.794-1.271,25.42,2.542c8.896,3.813,2.542,8.896-5.084,6.354
					c-8.896-2.542-16.521-8.896-24.148-1.271c-3.813,3.813-1.271,6.354,2.543,8.896c3.813,2.542,6.354,6.354,10.168,7.626
					c3.813,1.271,6.354-1.271,8.896-3.813c3.813-3.813,7.626-3.813,12.71-6.354c10.167-2.542,17.793,0,26.689,3.813
					c-11.438,5.084-22.877-5.084-34.315,2.542c-5.084,2.542-6.354,6.354-3.813,11.438c8.896,13.979,17.795,6.354,29.232,1.271
					c6.355-2.542,12.71-2.542,20.336-1.271c2.541,0,12.709,3.813,10.167,7.626c-2.542,2.542-11.438-1.271-12.71-1.271
					c-7.625-1.271-35.586,0-27.961,13.98c2.542,3.813,10.168,10.167,15.252,10.167s8.896-6.354,12.709-10.167
					c13.98-11.438,26.691-7.626,38.129,5.084c-11.438,2.542-39.398-6.355-41.941,11.438c-1.271,7.626,5.084,13.98,12.711,12.709
					c8.896-1.271,13.979-10.167,22.877-11.438c10.168-1.271,19.063,6.354,25.418,12.71c-10.166-2.542-24.146-5.084-34.314,1.271
					c-11.438,7.626-2.542,20.336,3.813,27.962c8.896,11.438,19.064,20.335,26.689,33.045c7.626,11.438,16.521,22.878,26.689,34.315
					c8.896,10.168,17.795,19.064,25.42,30.503c6.354,10.168,8.896,21.606,12.709,31.774c3.813,11.438,5.084,21.605,5.084,33.045
					C1817.477,934.157,1807.309,958.306,1790.785,976.099z"/>
				<path fill="#96C75C" d="M1122.26,518.553L1122.26,518.553c-7.626,0-16.522,1.271-24.147,1.271
					c-6.355-7.626-12.71-15.251-19.064-22.877c6.354,1.271,12.709,1.271,17.793,1.271c2.542,0,5.084,0,7.626,0
					C1110.82,505.843,1117.176,512.197,1122.26,518.553z"/>
				<path fill="#96C75C" d="M1098.111,519.823c-8.896,0-19.064-1.271-27.961-2.542c-24.148-3.813-44.484-13.98-61.008-31.773
					c-8.896-10.168-19.063-21.605-22.877-35.587c-1.271-5.084-2.542-10.168-1.271-15.252c1.271-3.813,3.813-13.979,10.168-12.71
					c6.354,1.271,7.626,12.71,10.168,16.523c2.542,5.083,6.354,10.167,10.168,15.251c7.626,10.168,15.251,19.063,25.419,26.689
					c11.438,8.896,25.419,12.709,39.4,15.251C1085.4,504.572,1091.756,512.197,1098.111,519.823z"/>
				<path fill="#96C75C" d="M1105.736,498.217c-2.541,0-5.084,0-7.625,0c-6.355,0-12.711-1.271-17.795-1.271
					c-5.082-6.354-8.896-13.98-12.709-20.335c-5.084-8.897-10.168-19.064-12.709-29.232c-1.271-6.354-3.813-11.438-5.084-17.794
					c0-1.271-2.543-8.896-2.543-8.896c5.084-8.896,20.337,17.794,21.606,20.335c5.084,8.896,10.168,17.794,15.252,26.689
					C1090.484,477.882,1098.111,489.32,1105.736,498.217z"/>
			</g>
		</g>
	</g>
</g>
<rect x="1175.641" y="273.257" fill="none" width="24.147" height="19.064"/>
<line fill="none" x1="2221.643" y1="352.057" x2="1099.382" y2="352.057"/>
<g>
	<path fill="#FFFFFF" d="M1129.885,258.005c0,7.625,6.355,15.251,15.252,15.251h263.09c7.625,0,15.252-6.355,15.252-15.251V59.735
		c0-7.626-6.354-15.252-15.252-15.252h-264.36c-7.625,0-15.251,6.355-15.251,15.252L1129.885,258.005L1129.885,258.005z"/>
</g>
</svg>
